# File created by Blade
# Date/Time:  Tue Jan 27 19:00:36 2015
# Frame Rate: 120.000 fps
#------------------------------------------------------
:FULLY-SPECIFIED
:DEGREES
3731
root -3.445117 31.539414 -3.228737 8.554924 -45.797080 -11.696808
Spine 3.064390 11.169999 -1.446729
Head 23.846770 27.971897 6.585696
LeftShoulder -21.759673 21.257529 11.701542
LeftArm -7.265727 -49.692907 -72.709778
LeftForeArm -6.299973 0.000000 111.291005
LeftHand -16.074029 -0.000000 35.313430
LeftHandThumb1 -26.253704 0.000000 33.147579
RightShoulder -6.027332 4.092298 -5.102218
RightArm 19.154684 -43.885977 74.180287
RightForeArm -26.510096 -0.000000 27.287178
RightHand -13.474749 -0.000000 9.775715
RightHandThumb1 -24.326973 -0.000000 -32.862282
LeftUpLeg -2.150019 13.488842 -4.389947
LeftLeg 16.065433 -0.000000 -0.000000
LeftFoot -32.540988 34.051112 -16.235669
LeftToeBase 12.059938 -0.000000 -0.000000
RightUpLeg -8.308029 -30.142704 -16.187621
RightLeg 88.912138 -0.000000 -0.000000
RightFoot -23.319136 -29.167842 12.631273
RightToeBase 0.542849 -0.000000 -0.000000
3732
root -3.455058 31.533827 -3.241218 8.539848 -45.766280 -11.688327
Spine 3.081033 11.138351 -1.473515
Head 23.782152 27.988602 6.552332
LeftShoulder -21.723594 21.230339 11.779287
LeftArm -7.207515 -49.523191 -72.608043
LeftForeArm -6.449526 -0.000000 111.260452
LeftHand -16.012786 -0.000000 35.298702
LeftHandThumb1 -26.253704 0.000000 33.147579
RightShoulder -6.014370 4.104649 -5.099475
RightArm 19.143616 -43.919925 74.153032
RightForeArm -26.570756 -0.000000 27.249567
RightHand -13.370289 -0.000000 9.810823
RightHandThumb1 -24.326973 -0.000000 -32.862282
LeftUpLeg -2.218863 13.435035 -4.389825
LeftLeg 16.196026 -0.000000 -0.000000
LeftFoot -32.462241 34.221293 -15.985356
LeftToeBase 11.988174 -0.000000 -0.000000
RightUpLeg -8.401543 -29.770273 -16.158481
RightLeg 88.693684 -0.000000 -0.000000
RightFoot -23.398587 -29.390650 12.534612
RightToeBase 0.773947 -0.000000 -0.000000
3733
root -3.461376 31.528153 -3.250859 8.507815 -45.777445 -11.653868
Spine 3.100560 11.133153 -1.509027
Head 23.710079 28.015755 6.504142
LeftShoulder -21.722216 21.237572 11.834109
LeftArm -7.026745 -49.317293 -72.639511
LeftForeArm -6.511432 -0.000000 111.241352
LeftHand -16.032134 0.000000 35.403787
LeftHandThumb1 -26.253704 0.000000 33.147579
RightShoulder -6.016976 4.073737 -5.080248
RightArm 19.234674 -43.990462 73.999604
RightForeArm -26.633920 -0.000000 27.261683
RightHand -13.429932 -0.000000 9.946274
RightHandThumb1 -24.326973 -0.000000 -32.862282
LeftUpLeg -2.239980 13.268059 -4.419111
LeftLeg 16.216065 -0.000000 -0.000000
LeftFoot -32.558130 34.516614 -16.027835
LeftToeBase 11.791111 -0.000000 -0.000000
RightUpLeg -8.544313 -29.357203 -16.143780
RightLeg 88.497265 -0.000000 -0.000000
RightFoot -23.440933 -29.551092 12.459549
RightToeBase 0.546679 -0.000000 -0.000000
3734
root -3.468670 31.523008 -3.261083 8.472090 -45.810935 -11.629325
Spine 3.135995 11.132773 -1.548776
Head 23.625987 28.077970 6.478114
LeftShoulder -21.730857 21.235445 11.890175
LeftArm -6.920594 -49.103963 -72.608249
LeftForeArm -6.594188 0.000000 111.243507
LeftHand -16.046208 0.000000 35.357200
LeftHandThumb1 -26.253704 0.000000 33.147579
RightShoulder -6.024165 4.049985 -5.048935
RightArm 19.343003 -44.071215 73.840683
RightForeArm -26.609832 -0.000000 27.231927
RightHand -13.466143 -0.000000 9.916045
RightHandThumb1 -24.326973 -0.000000 -32.862282
LeftUpLeg -2.250132 13.127427 -4.439619
LeftLeg 16.261657 -0.000000 -0.000000
LeftFoot -32.553382 34.695667 -15.962559
LeftToeBase 12.034638 -0.000000 -0.000000
RightUpLeg -8.701007 -28.896158 -16.105303
RightLeg 88.307086 -0.000000 -0.000000
RightFoot -23.407425 -29.570005 12.313498
RightToeBase 0.523188 -0.000000 -0.000000
3735
root -3.474254 31.518633 -3.273114 8.444399 -45.873978 -11.617524
Spine 3.186956 11.148774 -1.579215
Head 23.515109 28.131243 6.433843
LeftShoulder -21.760074 21.259813 11.908263
LeftArm -6.776917 -48.928958 -72.593907
LeftForeArm -6.786724 0.000000 111.255241
LeftHand -16.054710 0.000000 35.432827
LeftHandThumb1 -26.253704 0.000000 33.147579
RightShoulder -6.044327 4.048324 -5.023344
RightArm 19.461816 -44.164181 73.685927
RightForeArm -26.499205 0.000000 27.187758
RightHand -13.508399 -0.000000 9.871415
RightHandThumb1 -24.326973 -0.000000 -32.862282
LeftUpLeg -2.275740 12.965163 -4.461712
LeftLeg 16.312156 -0.000000 -0.000000
LeftFoot -32.547496 35.028546 -15.901071
LeftToeBase 11.715996 -0.000000 -0.000000
RightUpLeg -8.903600 -28.384170 -16.033814
RightLeg 88.134836 -0.000000 -0.000000
RightFoot -23.344426 -29.500633 12.136103
RightToeBase 0.235130 -0.000000 -0.000000
